<svg width="236" height="33" viewBox="0 0 236 33" fill="none" xmlns="http://www.w3.org/2000/svg">
<path d="M2.54264 14.6745C2.20938 13.6804 1.91314 13.1649 1.13553 12.944L0.246826 12.723L0.283855 10.5875H12.0221L11.8 12.723L10.3558 13.349H10.4299C10.1336 13.4594 10.3558 14.5272 10.615 15.6318L13.059 26.2728L16.3916 16.5155L15.7621 14.159C15.5399 13.4594 15.3918 13.1281 14.9104 12.944L14.2439 12.723L14.2069 10.5875H25.723L25.5378 12.723L23.6864 13.3858C23.3901 13.4594 23.6493 14.5641 23.8715 15.6687L26.2043 26.2728L29.7962 14.6377C29.8702 14.38 29.9073 14.159 29.9073 13.9749C29.9073 13.5699 29.6851 13.2753 29.2037 13.0912L28.0928 12.723L28.0188 10.5507H36.3133L36.1652 12.723L35.0543 13.0176C34.2397 13.2385 33.9435 13.6804 33.5732 14.7113H33.5361L28.5372 27.7825L27.6115 31.0226L20.65 31.6854L17.8357 21.4862L15.4659 27.4143L14.355 31.0226L7.50456 31.6854L2.54264 14.6745Z" fill="white"/>
<path d="M50.1623 31.1699L50.4216 29.0343L51.2732 28.7029C51.9768 28.3715 52.273 27.8561 52.31 26.3833L52.3471 23.9163L52.3841 17.5096C52.3841 14.7849 51.4954 14.1222 49.9031 14.1222C48.9774 14.1222 47.9776 14.4535 46.9778 14.8954L46.7186 26.3833C46.6816 27.8929 46.9038 28.4084 47.6814 28.7397L48.6071 29.0711V31.2067H36.4985L36.7577 29.0711L37.9427 28.7766C38.9054 28.482 39.2387 27.8929 39.2757 26.1255L39.3498 22.554L39.3868 7.89958C39.3868 7.05271 39.2757 5.46945 39.0536 5.43263L36.6467 4.43849L36.6096 2.37656C38.6092 1.67698 45.1634 0.167358 47.5703 0.167358L47.163 6.57405L47.0519 13.2753C48.9034 11.5079 51.7176 9.7774 54.4207 9.7774C57.7904 9.7774 60.3084 12.1707 60.1603 15.8527L59.79 25.7941C59.7159 27.6351 59.9751 28.3347 61.086 28.7029L62.2339 28.9975L62.2709 31.133H50.1623V31.1699Z" fill="white"/>
<path d="M77.0085 9.7406C83.3035 9.7406 87.8211 13.6067 87.8211 19.9766C87.8211 27.2301 82.0075 31.9799 75.12 31.9799C68.788 31.9799 64.3075 28.1138 64.3075 21.7808C64.3075 14.564 70.1581 9.7406 77.0085 9.7406ZM75.7866 12.2812C73.8981 12.2812 72.6761 14.3063 72.6761 19.9029C72.6761 26.236 74.2313 29.4393 76.342 29.4393C78.2305 29.4393 79.4154 27.4142 79.4154 21.8176C79.4154 15.5214 77.9343 12.2812 75.7866 12.2812Z" fill="white"/>
<path d="M100.67 0.167358L100.263 6.57405L99.8556 26.3096C99.8186 27.8192 100.078 28.4084 100.855 28.6661L102.04 28.9975L102.077 31.1331H89.5985L89.8577 28.9975L91.0427 28.7029C92.0054 28.4084 92.3387 27.8192 92.3757 26.0519L92.4498 22.4803L92.4868 7.82594C92.4868 6.97908 92.3757 5.39581 92.1535 5.35899L89.7466 4.36485L89.7096 2.37656C91.7092 1.67698 98.2634 0.167358 100.67 0.167358ZM105.743 13.9381C105.817 13.8276 105.854 13.6803 105.854 13.5331C105.854 13.349 105.743 13.2017 105.373 13.128L103.781 12.7598L103.707 10.6243H114.112L114.001 12.6862L112.149 13.0544C111.261 13.2753 110.631 13.6435 110.039 14.2695L106.077 18.1724C108.928 23.8427 111.927 28.2979 115.519 29.5866L115.408 30.9121C114.519 31.5013 113.223 32.0167 111.446 32.0167C106.04 32.0167 102.707 27.5983 100.226 20.7498L105.743 13.9381Z" fill="white"/>
<path d="M126.813 9.88786L126.294 13.6067C128.442 11.508 131.664 9.7774 134.478 9.7774C137.7 9.7774 140.218 12.1707 140.032 15.8527L139.625 25.7942C139.551 27.6352 139.847 28.3347 140.958 28.7029L142.106 28.9975L142.143 31.1331H130.071L130.331 28.9975L131.182 28.6661C131.849 28.3716 132.145 27.8193 132.182 26.3465L132.256 24.1373V17.5096C132.256 14.8218 131.405 14.0854 129.849 14.0854C128.998 14.0854 128.035 14.3431 126.998 14.7481L126.591 26.3096C126.554 27.8193 126.702 28.3716 127.479 28.6661L128.405 28.9975V31.1331H116.334L116.593 28.9975L117.778 28.7029C118.741 28.4084 119.074 27.8193 119.111 26.0519L119.222 22.8117L119.259 17.5833C119.259 16.4418 119.148 15.2268 118.963 15.1531L116.519 14.159L116.482 12.1707C118.407 11.5079 124.813 9.88786 126.813 9.88786Z" fill="white"/>
<path d="M156.955 9.7406C163.25 9.7406 167.767 13.6067 167.767 19.9766C167.767 27.2301 161.954 31.9799 155.066 31.9799C148.734 31.9799 144.254 28.1138 144.254 21.7808C144.254 14.564 150.067 9.7406 156.955 9.7406ZM155.733 12.2812C153.844 12.2812 152.622 14.3063 152.622 19.9029C152.622 26.236 154.177 29.4393 156.288 29.4393C158.177 29.4393 159.362 27.4142 159.362 21.8176C159.362 15.5214 157.88 12.2812 155.733 12.2812Z" fill="white"/>
<path d="M171.063 14.6745C170.73 13.6804 170.433 13.1649 169.656 12.944L168.767 12.6862L168.804 10.5507H180.579L180.357 12.6862L178.913 13.3122H178.987C178.691 13.4226 178.913 14.4904 179.172 15.595L181.616 26.236L184.949 16.4787L184.319 14.1222C184.097 13.4226 183.949 13.0912 183.468 12.9071L182.801 12.6862L182.764 10.5507H194.28L194.095 12.6862L192.244 13.349C191.947 13.4226 192.207 14.5272 192.429 15.6318L194.762 26.236L198.353 14.6009C198.428 14.3431 198.465 14.1222 198.465 13.9381C198.465 13.5331 198.242 13.2385 197.761 13.0544L196.65 12.6862L196.576 10.5507H204.871L204.76 12.6862L203.612 12.9808C202.797 13.2017 202.501 13.6435 202.13 14.6745H202.093L197.094 27.7825L196.169 31.0226L189.207 31.6854L186.393 21.4862L184.023 27.4143L182.912 31.0226L176.062 31.6854L171.063 14.6745Z" fill="white"/>
<path d="M214.535 9.7406C216.831 9.7406 219.905 10.2929 221.941 11.0293C221.978 13.0544 221.941 15.6686 221.83 17.2887L219.534 17.5096C218.535 14.0117 216.831 12.3548 214.906 12.3548C213.61 12.3548 212.61 13.1649 212.61 14.4168C212.61 15.9264 213.869 16.626 216.424 17.9147C220.275 19.8293 223.015 21.3021 223.015 25.0578C223.015 29.2184 219.645 31.9063 213.239 31.9063C210.536 31.9063 207.426 31.3908 206.13 30.8753C205.537 28.6661 205.241 25.4628 205.241 23.8427L207.648 23.7322C208.5 26.5674 211.203 29.2552 213.906 29.2552C215.313 29.2552 216.128 28.5188 216.091 27.3774C216.017 25.6837 213.869 24.7632 210.943 23.3272C208.203 21.8912 205.982 20.4184 205.908 16.9205C205.87 12.0234 209.87 9.7406 214.535 9.7406Z" fill="white"/>
<path d="M230.569 31.6486C227.903 31.6486 226.125 30.0653 226.125 27.5983C226.125 24.9105 228.273 23.1799 231.087 23.1799C233.791 23.1799 235.457 24.6527 235.457 27.0829C235.494 29.8075 233.309 31.6486 230.569 31.6486Z" fill="#FF9560"/>
</svg>
